<svg width="1080" height="1080" viewBox="0 0 1080 1080" fill="none" xmlns="http://www.w3.org/2000/svg">
<rect width="1080" height="1080" fill="#FFE6C9"/>
<path d="M448.567 610.397C442.518 614.934 435.561 617.051 427.697 616.749C420.135 616.446 413.632 613.875 408.187 609.036C405.768 606.616 403.802 603.894 402.289 600.869C400.777 597.844 399.567 594.669 398.66 591.341C398.357 590.434 398.055 588.922 397.752 586.804C397.45 584.687 397.147 582.418 396.845 579.999C396.542 577.276 396.24 574.857 395.937 572.739C395.937 570.32 395.937 568.656 395.937 567.749C395.03 559.28 394.123 550.81 393.215 542.341C392.308 533.872 391.098 525.403 389.585 516.934C388.981 511.792 388.224 506.801 387.317 501.962C386.41 496.82 385.2 491.678 383.687 486.536C382.477 483.511 381.268 480.486 380.058 477.461C379.15 474.134 377.638 471.261 375.521 468.841C371.286 471.261 367.354 474.286 363.724 477.915C360.397 481.545 357.221 485.326 354.197 489.258C347.24 498.029 340.737 506.952 334.687 516.026C328.638 525.1 323.193 534.477 318.354 544.156C315.027 550.205 312.153 556.406 309.733 562.758C307.616 569.11 305.801 575.613 304.289 582.267C303.684 585.594 303.079 589.224 302.474 593.156C301.869 596.786 300.508 600.113 298.391 603.138C295.669 606.767 291.888 608.733 287.048 609.036C282.511 609.338 278.579 607.826 275.252 604.499C273.74 602.986 272.53 601.172 271.622 599.054C271.017 596.635 270.412 594.215 269.807 591.795C269.505 591.19 269.354 589.829 269.354 587.712C269.354 585.292 269.203 583.78 268.9 583.175C260.431 545.366 255.44 507.104 253.928 468.387C252.415 429.671 253.323 390.955 256.65 352.239C256.952 349.214 257.255 344.98 257.557 339.535C258.162 334.091 258.919 328.495 259.826 322.748C261.036 316.699 262.246 311.254 263.456 306.415C264.968 301.273 266.783 297.492 268.9 295.072C270.715 293.257 272.681 291.594 274.798 290.082C276.915 288.267 279.184 287.057 281.604 286.452C284.326 285.544 287.048 285.091 289.77 285.091C292.795 284.788 295.669 285.242 298.391 286.452C302.928 288.569 307.011 292.048 310.641 296.887C314.271 301.424 315.783 306.264 315.178 311.406C314.573 320.177 313.363 328.646 311.548 336.813C309.733 344.98 308.07 353.449 306.558 362.221C304.743 373.109 303.079 383.998 301.567 394.887C300.054 405.776 298.845 416.665 297.937 427.554C296.727 439.048 296.122 450.39 296.122 461.582C296.122 472.773 296.274 483.965 296.576 495.156C296.878 494.249 297.786 492.736 299.298 490.619C300.811 488.199 302.474 485.779 304.289 483.36C306.104 480.94 307.767 478.671 309.28 476.554C311.095 474.134 312.304 472.471 312.909 471.563C316.841 466.119 320.925 460.977 325.159 456.137C329.394 450.995 334.082 446.307 339.224 442.073C343.761 438.443 348.752 435.267 354.197 432.545C359.641 429.822 365.388 428.008 371.437 427.1C377.487 426.495 383.687 426.949 390.039 428.461C396.391 429.974 401.835 432.696 406.373 436.628C411.515 440.863 416.052 445.551 419.984 450.693C423.916 455.835 427.394 461.431 430.419 467.48C437.376 481.999 442.215 497.273 444.937 513.304C447.962 529.335 450.987 545.366 454.012 561.397C454.919 566.539 456.129 571.681 457.641 576.823C459.456 581.965 460.061 587.107 459.456 592.249C458.851 595.576 457.49 598.903 455.373 602.23C453.558 605.557 451.289 608.28 448.567 610.397Z" fill="#7B4A23"/>
<path d="M239.497 780.852C238.278 781.466 237.059 782.081 235.84 782.696C234.622 783.31 233.249 783.62 231.723 783.626C227.421 784.038 223.173 782.587 218.98 779.275C215.031 776.145 212.531 772.475 211.479 768.267C210.984 766.376 210.702 764.454 210.634 762.501C210.78 760.516 210.712 758.563 210.431 756.641C209.868 752.797 209.055 747.245 207.992 739.984C206.898 732.51 205.694 724.288 204.381 715.319C203.25 706.105 202.072 696.571 200.848 686.716C199.805 676.617 198.948 667.036 198.275 657.973C197.603 648.91 197.178 640.792 197 633.62C197.005 626.203 197.596 620.554 198.772 616.673C199.345 614.626 200.423 613.051 202.007 611.946C203.559 610.629 205.205 609.951 206.944 609.915C208.866 609.633 210.76 609.901 212.624 610.719C214.489 611.537 216.096 612.828 217.445 614.594C218.549 616.177 219.628 619.073 220.68 623.282C221.701 627.277 222.663 631.608 223.564 636.274C224.679 640.91 225.549 645.363 226.175 649.634C226.982 653.661 227.527 656.635 227.808 658.557C229.136 654.218 230.813 649.282 232.839 643.751C234.833 638.006 237.119 632.763 239.697 628.023C242.458 623.038 245.679 618.967 249.361 615.811C253.012 612.44 257.142 610.854 261.752 611.052C264.164 611.135 266.562 611.874 268.948 613.27C271.302 614.452 273.474 615.879 275.464 617.551C277.303 619.681 278.837 621.965 280.066 624.403C281.478 626.595 282.89 628.788 284.302 630.981C287.896 637.653 290.972 644.51 293.53 651.552C296.27 658.349 299.042 665.359 301.844 672.584C303.219 664.093 304.945 655.77 307.023 647.613C309.283 639.211 312.368 631.234 316.279 623.681C318.644 618.973 321.36 614.431 324.427 610.055C327.495 605.68 330.961 601.791 334.826 598.39C337.534 596.03 340.411 594.082 343.458 592.545C346.719 590.977 349.982 590.172 353.248 590.13C357.368 589.963 361.34 591.018 365.163 593.294C369.168 595.325 372.382 597.908 374.804 601.043C375.909 602.627 376.891 604.119 377.75 605.52C378.823 606.89 379.698 608.398 380.376 610.044C380.438 610.471 380.592 610.775 380.837 610.958C383.264 615.619 385.371 620.328 387.158 625.083C388.945 629.838 390.732 634.594 392.519 639.349C392.826 639.958 393.366 641.406 394.137 643.693C394.876 645.766 395.632 647.946 396.403 650.232C397.174 652.519 397.945 654.805 398.716 657.092C399.456 659.165 399.872 660.522 399.966 661.162C401.727 667.23 403.793 673.144 406.163 678.905C408.533 684.666 410.797 690.442 412.954 696.234C415.11 702.025 417.069 707.955 418.83 714.023C420.56 719.878 421.756 725.81 422.418 731.821C422.699 733.743 422.538 735.621 421.934 737.454C421.543 739.256 420.939 741.09 420.121 742.954C418.97 745.522 417.207 747.635 414.832 749.291C412.457 750.948 410.02 752.177 407.52 752.979C404.624 754.058 401.449 753.977 397.996 752.738C394.787 751.681 392.05 750.118 389.784 748.051C388.56 747.139 387.427 746.105 386.385 744.949C385.526 743.548 384.757 742.025 384.08 740.379C383.34 738.306 382.291 734.86 380.931 730.042C379.54 725.011 378.055 719.339 376.476 713.026C374.898 706.713 373.165 700.096 371.279 693.174C369.576 686.007 367.934 679.267 366.356 672.954C364.746 666.428 363.368 660.74 362.222 655.891C361.044 650.828 360.192 647.245 359.666 645.141C358.551 640.505 357.329 635.885 356.001 631.281C354.672 626.676 352.841 622.364 350.507 618.343C346.612 621.531 343.39 625.602 340.844 630.555C338.479 635.264 336.344 640.048 334.438 644.908C330.537 655.513 327.66 666.404 325.807 677.582C324.136 688.515 322.923 699.599 322.168 710.834C321.965 713.918 321.763 717.001 321.56 720.085C321.325 722.955 320.755 725.765 319.849 728.515C318.943 731.265 317.516 733.437 315.568 735.031C313.62 736.625 311.381 737.717 308.849 738.306C306.5 738.649 304.18 738.444 301.888 737.689C299.596 736.934 297.622 735.369 295.965 732.994C295.658 732.384 294.983 731.501 293.942 730.345C293.082 728.944 292.1 727.452 290.996 725.869C289.891 724.285 288.925 722.9 288.097 721.712C287.237 720.311 286.654 719.306 286.347 718.697C284.654 714.582 283.083 710.558 281.635 706.626C280.155 702.48 278.782 698.318 277.516 694.141C277.454 693.714 277.344 692.967 277.188 691.899C277.032 690.831 276.816 690.099 276.539 689.703C276.076 688.026 275.073 684.901 273.531 680.328C272.202 675.724 270.613 670.83 268.764 665.648C267.128 660.434 265.539 655.541 263.997 650.968C262.455 646.395 261.239 643.301 260.348 641.686C256.681 649.421 253.718 657.49 251.458 665.891C249.412 674.262 247.808 682.676 246.647 691.135C245.341 701.579 244.69 712.035 244.696 722.504C244.702 732.974 244.922 743.412 245.355 753.818C245.417 754.246 245.649 755.084 246.05 756.334C246.451 757.584 246.683 758.423 246.746 758.85C247.918 762.387 247.749 766.447 246.239 771.03C244.942 775.583 242.695 778.857 239.497 780.852Z" fill="#7B4A23"/>
<path d="M512.509 733.439C505.433 736.373 497.977 738.171 490.141 738.833C482.304 739.496 474.643 739.054 467.157 737.509C453.726 734.729 442.87 727.865 434.589 716.915C431.697 712.961 429.492 708.712 427.971 704.168C426.463 699.403 425.628 694.564 425.466 689.653C425.115 680.275 426.312 671.098 429.058 662.121C431.803 653.144 435.634 644.676 440.549 636.715C445.464 628.755 450.915 621.159 456.902 613.929C463.111 606.712 469.941 600.31 477.393 594.724C485.771 588.522 494.555 583.013 503.745 578.196C513.17 573.169 522.968 569.389 533.141 566.856C535.622 566.331 538.097 565.916 540.565 565.613C543.268 565.1 545.854 564.692 548.322 564.389C551.692 563.915 555.14 564.002 558.667 564.651C562.195 565.3 565.357 566.485 568.155 568.206C571.187 569.718 573.521 571.746 575.156 574.291C577.014 576.849 578.063 579.917 578.302 583.496C578.251 584.384 578.069 585.599 577.758 587.141C577.668 588.695 577.35 590.348 576.803 592.099C576.492 593.641 576.069 595.176 575.535 596.705C575.014 598.012 574.513 598.985 574.03 599.626C573.509 600.933 572.557 601.992 571.173 602.803C569.79 603.615 568.419 604.204 567.061 604.571C566.813 605.003 566.645 605.996 566.555 607.55C566.687 609.117 566.741 610.123 566.715 610.567C566.13 612.984 565.774 615.303 565.646 617.524C565.74 619.757 565.605 622.089 565.243 624.519C564.235 634.264 564.116 644.061 564.885 653.909C565.877 663.769 568.121 673.145 571.619 682.036C572.785 685 573.957 687.852 575.136 690.594C576.55 693.126 578.192 695.56 580.063 697.896C582.365 700.48 585.019 702.75 588.025 704.705C591.045 706.439 593.94 708.388 596.712 710.553C599.483 712.718 601.119 715.263 601.619 718.189C602.354 720.905 602.2 723.57 601.158 726.183C600.351 728.587 598.669 730.719 596.111 732.576C593.788 734.225 590.85 734.947 587.296 734.742C581.51 734.631 575.676 733.404 569.796 731.059C564.137 728.728 559.111 725.096 554.716 720.164C550.334 715.01 546.86 709.573 544.293 703.855C542.312 707.306 540.115 710.633 537.702 713.836C535.524 716.83 532.909 719.687 529.855 722.407C527.272 724.709 524.479 726.776 521.477 728.608C518.697 730.453 515.708 732.063 512.509 733.439ZM480.549 696.505C483.201 696.88 485.872 696.923 488.563 696.632C491.266 696.12 493.884 695.157 496.416 693.743C498.022 692.944 499.307 691.904 500.272 690.623C501.459 689.355 502.535 688.08 503.5 686.799C506.161 683.164 508.266 679.498 509.816 675.8C511.601 671.892 513.17 667.861 514.524 663.706C516.671 657.368 518.486 651.011 519.968 644.635C521.462 638.037 523.061 631.557 524.765 625.194C524.803 624.527 525.096 623.319 525.642 621.568C526.189 619.817 526.742 617.955 527.301 615.982C527.86 614.009 528.413 612.147 528.96 610.396C529.506 608.645 529.91 607.443 530.17 606.79C522.808 610.821 515.741 615.538 508.968 620.941C502.417 626.356 496.39 632.359 490.885 638.948C488.251 642.139 485.603 645.551 482.943 649.185C480.517 652.61 478.412 656.277 476.627 660.184C475.858 661.922 474.94 664.32 473.873 667.378C472.818 670.214 471.868 673.167 471.023 676.237C470.399 679.321 470.005 682.306 469.838 685.193C469.672 688.079 470.099 690.332 471.12 691.951C472.14 693.569 473.526 694.652 475.277 695.198C477.028 695.745 478.785 696.18 480.549 696.505Z" fill="#7B4A23"/>
<path d="M638.47 788.118C634.49 791.453 629.828 793.078 624.486 792.993C619.353 793.143 615.125 791.117 611.802 786.915C610.128 785.036 608.695 782.837 607.504 780.317C606.534 777.81 606.009 775.329 605.928 772.874C606.094 769.987 606.382 764.99 606.792 757.884C607.423 750.791 608.002 742.692 608.526 733.587C609.273 724.495 610.052 714.848 610.863 704.646C611.674 694.443 612.453 684.796 613.2 675.704C613.947 666.612 614.636 658.52 615.268 651.426C615.9 644.333 616.299 639.343 616.465 636.456C616.542 635.124 616.508 633.785 616.362 632.44C616.452 630.885 616.757 629.455 617.278 628.148C617.85 625.953 618.958 624.123 620.602 622.658C622.469 621.206 624.414 620.315 626.438 619.986C628.462 619.658 630.454 619.884 632.415 620.665C634.597 621.459 636.297 622.894 637.514 624.97C639.987 628.454 641.428 632.436 641.838 636.916C643.205 644.125 644.01 651.412 644.254 658.779C644.733 665.936 644.989 673.081 645.024 680.213C648.765 673.298 652.93 666.743 657.521 660.546C662.124 654.127 667.564 648.648 673.842 644.108C678.958 640.393 684.793 637.721 691.348 636.094C698.126 634.479 704.467 634.622 710.373 636.522C715.182 638.136 719.692 641.07 723.903 645.323C727.904 649.341 731.084 654.092 733.442 659.575C735.812 664.837 737.497 670.392 738.497 676.243C740.363 686.377 741.446 696.577 741.746 706.843C742.28 716.9 742.69 727.173 742.977 737.661C742.875 739.438 742.93 742.337 743.144 746.36C743.358 750.383 743.552 754.739 743.728 759.428C743.916 763.895 743.999 768.244 743.978 772.476C743.97 776.486 743.699 779.256 743.165 780.785C741.5 786.482 738.481 790.541 734.108 792.962C729.735 795.384 725.223 796.349 720.573 795.859C716.157 795.158 712.151 793.145 708.555 789.818C704.972 786.27 703.125 781.596 703.013 775.796C702.8 771.774 702.697 767.757 702.705 763.747C702.714 759.737 702.938 755.851 703.377 752.089C704.03 740.763 704.788 729.555 705.65 718.465C706.734 707.387 706.708 696.245 705.571 685.04C705.401 684.139 705.144 682.787 704.803 680.985C704.696 678.973 704.36 677.06 703.797 675.245C703.468 673.221 703.015 671.413 702.438 669.82C702.097 668.018 701.612 666.764 700.984 666.06C700.565 665.59 699.906 665.44 699.005 665.611C698.116 665.56 697.444 665.633 696.987 665.829C694.049 666.551 691.405 667.958 689.057 670.051C686.93 672.156 684.594 674.027 682.049 675.663C680.887 676.487 679.107 678.39 676.707 681.37C674.542 684.142 673.094 686.064 672.364 687.136C664.84 697.842 658.819 709.527 654.301 722.189C650.019 734.642 647.062 747.283 645.431 760.112C645.367 761.222 645.337 763.671 645.342 767.459C645.581 771.038 645.558 773.376 645.272 774.473C644.687 776.89 643.873 779.406 642.832 782.019C641.803 784.411 640.348 786.444 638.47 788.118Z" fill="#7B4A23"/>
<path d="M828.205 773.847C821.859 775.709 815.415 777.343 808.873 778.748C802.565 779.944 796.179 780.579 789.713 780.652C786.357 780.904 783.156 780.385 780.111 779.096C777.079 777.584 774.516 775.654 772.424 773.305C770.553 770.969 769.146 768.326 768.202 765.375C767.271 762.202 767.234 758.969 768.093 755.677C768.951 752.384 770.573 749.358 772.961 746.6C775.087 744.494 777.521 742.852 780.263 741.673C783.005 740.494 785.74 739.427 788.468 738.47C790.74 737.71 794.592 736.595 800.024 735.126C805.678 733.669 811.561 732.114 817.672 730.461C823.796 728.586 829.469 726.797 834.692 725.092C840.149 723.179 843.916 721.614 845.991 720.396C842.814 717.54 839.363 715.558 835.639 714.452C827.982 712.006 820.077 709.991 811.925 708.407C803.772 706.823 795.88 704.585 788.249 701.694C784.329 700.132 780.427 698.236 776.545 696.007C772.663 693.778 769.375 690.914 766.68 687.417C761.893 681.571 759.025 675.278 758.076 668.54C757.363 661.592 758.086 654.838 760.247 648.278C762.642 641.509 766.24 635.144 771.04 629.182C775.852 622.998 781.391 617.747 787.655 613.43C792.289 610.355 797.211 608.076 802.42 606.594C807.643 604.89 813.062 603.642 818.678 602.852C824.529 601.853 830.563 601.532 836.781 601.89C843.221 602.262 849.276 603.502 854.948 605.611C858.437 606.926 861.795 608.568 865.024 610.537C868.253 612.505 871.123 614.899 873.634 617.717C874.262 618.422 874.981 619.466 875.793 620.85C876.826 622.246 877.742 623.747 878.541 625.353C879.574 626.749 880.38 628.244 880.956 629.837C881.768 631.22 882.259 632.363 882.43 633.264C882.878 637.077 881.903 640.474 879.503 643.455C877.325 646.449 874.336 648.059 870.535 648.286C868.745 648.405 866.877 647.963 864.93 646.96C863.217 645.747 861.485 644.868 859.734 644.321C857.762 643.762 855.789 643.202 853.815 642.643C851.855 641.862 849.889 641.191 847.916 640.632C844.832 640.009 841.834 639.836 838.922 640.113C836.009 640.391 833.091 640.78 830.165 641.28C826.561 641.963 823.055 642.875 819.647 644.016C816.239 645.156 813.133 646.871 810.327 649.16C805.198 653.097 801.567 658.124 799.432 664.239C800.922 665.439 803.843 666.945 808.195 668.755C812.769 670.578 817.669 672.532 822.896 674.616C828.136 676.477 833.043 678.32 837.617 680.143C842.204 681.744 845.366 682.929 847.104 683.698C851.43 685.953 855.645 688.201 859.75 690.443C864.076 692.697 867.691 695.691 870.595 699.423C874.152 703.416 876.894 708.03 878.821 713.265C880.969 718.514 881.674 723.679 880.935 728.761C880.158 734.509 878.055 740.069 874.626 745.442C871.21 750.592 867.068 754.809 862.2 758.094C856.875 761.574 851.353 764.598 845.635 767.165C839.917 769.732 834.107 771.959 828.205 773.847Z" fill="#7B4A23"/>
<path d="M611.663 463.328C615.841 477.915 615.878 492.295 611.775 506.467C610.047 512.137 607.556 517.59 604.302 522.827C600.829 527.848 596.919 532.433 592.572 536.584C587.574 541.39 581.919 545.327 575.609 548.394C569.081 551.461 562.333 553.766 555.365 555.31C544.477 557.517 533.257 557.982 521.707 556.705C509.937 555.21 499.144 551.97 489.327 546.985C482.564 543.517 476.126 539.394 470.013 534.617C463.9 529.839 458.765 524.297 454.609 517.989C452.202 514.074 450.23 509.722 448.692 504.932C447.155 500.143 446.925 495.568 448.003 491.208C448.002 490.772 448.109 490.227 448.325 489.573C448.541 488.701 448.648 488.047 448.647 487.611C447.76 481.513 447.635 475.304 448.272 468.984C448.908 462.446 450.526 456.341 453.126 450.67C455.944 444.998 459.525 439.651 463.869 434.628C467.995 429.606 472.559 425.128 477.56 421.193C486.258 414.634 496.049 409.597 506.934 406.083C517.818 402.569 528.817 401.233 539.931 402.075C547.776 402.49 555.515 404.213 563.148 407.243C570.781 410.056 577.654 413.96 583.768 418.955C590.537 424.602 596.328 431.341 601.142 439.172C605.738 447.003 609.245 455.055 611.663 463.328ZM566.632 489.918C567.06 486.866 566.942 483.49 566.279 479.788C565.615 475.868 564.516 472.167 562.982 468.685C561.229 464.985 559.26 461.722 557.074 458.896C554.669 455.852 552.049 453.571 549.212 452.053C545.503 450.102 541.361 449.132 536.786 449.144C531.992 448.939 527.31 449.605 522.738 451.142C518.166 452.461 513.814 454.433 509.681 457.058C505.548 459.466 502.178 462.307 499.572 465.582C498.27 467.328 497.403 469.292 496.973 471.471C496.325 473.652 496.004 475.831 496.01 478.01C496.234 480.406 496.676 482.911 497.337 485.523C497.779 487.919 498.33 490.314 498.989 492.709C499.43 494.451 499.978 495.974 500.635 497.28C501.075 498.586 501.514 500.11 501.955 501.852C507.192 504.888 512.754 507.271 518.641 508.998C524.527 510.508 530.411 511.037 536.293 510.586C539.995 510.141 543.698 509.586 547.4 508.923C550.884 508.042 554.148 506.618 557.193 504.649C559.585 502.9 561.65 500.825 563.386 498.423C565.122 495.804 566.204 492.969 566.632 489.918Z" fill="#7B4A23"/>
<path fill-rule="evenodd" clip-rule="evenodd" d="M769.193 605.32C786.171 592.439 798.532 575.747 806.274 555.244C810.609 543.573 813.492 531.219 814.923 518.182C816.101 504.957 815.204 492.154 812.233 479.773C809.459 468.712 804.864 458.26 798.447 448.418C792.217 438.322 784.737 429.65 776.007 422.403C763.857 411.84 749.962 403.9 734.32 398.582C718.678 393.265 702.99 390.654 687.255 390.75C678.067 390.995 668.917 392.247 659.804 394.505C650.439 396.577 641.677 399.683 633.52 403.824C625.616 408.152 618.475 413.829 612.098 420.854C605.908 427.627 600.697 434.928 596.465 442.759C596.091 443.265 595.402 443.93 594.4 444.754C593.586 445.326 592.991 445.864 592.616 446.37C587.606 450.492 583.926 455.99 581.577 462.865C579.227 469.74 577.757 476.484 577.168 483.096C576.542 493.989 577.71 504.839 580.671 515.647C583.633 526.455 587.535 536.785 592.379 546.637C599.452 560.881 609.162 573.945 621.508 585.829C633.789 597.272 647.188 606.411 661.706 613.246C671.11 617.468 680.917 620.619 691.126 622.696C701.082 624.587 711.029 624.904 720.966 623.647C729.583 622.587 738.068 620.647 746.422 617.827C754.71 614.566 762.3 610.397 769.193 605.32ZM747.522 545.969C745.288 550.724 743.175 555.221 740.079 558.355C736.075 562.408 731.34 565.418 725.872 567.386C720.645 569.029 715.292 569.827 709.812 569.78C703.122 569.338 696.707 567.846 690.568 565.305C684.344 562.2 678.241 558.934 672.257 555.506C663.036 549.68 654.894 542.397 647.83 533.658C641.007 524.594 635.388 514.919 630.974 504.633C632.244 501.563 633.275 498.817 634.066 496.395C634.533 493.733 635.402 490.867 636.673 487.798C638.339 483.517 640.166 479.356 642.156 475.315C644.062 470.711 646.171 466.508 648.485 462.707C650.882 459.469 653.765 456.591 657.134 454.073C657.885 453.392 658.589 452.688 659.28 451.996C661.391 449.882 663.39 447.881 666.298 447.013C673.779 445.034 681.915 444.541 690.703 445.535C699.732 446.205 708.365 448.086 716.603 451.178C725.08 453.946 732.76 458.13 739.643 463.728C746.442 468.763 751.515 474.775 754.861 481.765C757.392 487.148 758.76 493.424 758.965 500.594C759.086 507.201 758.403 514.215 756.918 521.637C755.348 528.496 752.891 535.198 749.547 541.745C748.843 543.157 748.177 544.574 747.522 545.969Z" fill="#7B4A23"/>
</svg>
