<svg width="69" height="69" viewBox="0 0 69 69" fill="none" xmlns="http://www.w3.org/2000/svg">
<rect width="68.21" height="68.21" rx="11" fill="#212930"/>
<path d="M14.7491 27.0567V28.1959H13.0588V32.3606H11.8012V28.1959H10.1147V27.0567H14.7491ZM17.671 28.3919V28.3993C18.1703 28.3993 18.5476 28.5547 18.7991 28.8617C19.0506 29.1687 19.1764 29.5866 19.1764 30.1155V32.3643H17.9669V30.3559C17.9669 29.7974 17.7376 29.5163 17.2753 29.5163C17.0422 29.5163 16.861 29.6014 16.7279 29.7715C16.5947 29.9417 16.5281 30.1747 16.5281 30.4743V32.3606H15.315V26.8311H16.5281V28.8987C16.8203 28.5621 17.2013 28.3919 17.671 28.3919ZM21.943 32.4679L21.9393 32.4716C21.3068 32.4716 20.7964 32.2829 20.4043 31.9057C20.0123 31.5284 19.8162 31.0402 19.8162 30.4373C19.8162 29.8455 20.0049 29.3573 20.3821 28.9726C20.7594 28.588 21.2513 28.3956 21.8616 28.3956C22.483 28.3956 22.9749 28.5843 23.3374 28.9615C23.6998 29.3388 23.8811 29.8159 23.8811 30.3929C23.8811 30.5446 23.87 30.6777 23.8515 30.7924H20.9961C21.0886 31.2362 21.4104 31.4581 21.9615 31.4581C22.3313 31.4581 22.5902 31.3287 22.7345 31.0661L23.8256 31.3841C23.7035 31.6615 23.4779 31.9131 23.145 32.135C22.8122 32.3569 22.4127 32.4679 21.943 32.4679ZM20.9998 30.0674H22.7012C22.6827 29.8862 22.5976 29.7308 22.4423 29.6014C22.2869 29.4719 22.0909 29.4091 21.8542 29.4091C21.6175 29.4091 21.4215 29.4756 21.2698 29.6051C21.1182 29.7345 21.0294 29.8899 20.9998 30.0674ZM13.007 34.0567L12.9996 34.0604C13.5655 34.0604 14.0241 34.2564 14.3755 34.6448C14.7269 35.0332 14.9044 35.4733 14.9044 35.9652C14.9044 36.4645 14.7269 36.9084 14.3718 37.2967C14.0167 37.6851 13.5433 37.8774 12.9552 37.8774H11.6977V39.3606H10.4549V34.0567H13.007ZM12.9182 36.7567L12.9219 36.753C13.1439 36.753 13.3251 36.6754 13.4693 36.52C13.6136 36.3647 13.6839 36.1834 13.6839 35.9763C13.6839 35.7692 13.6173 35.588 13.4804 35.4326C13.3436 35.2773 13.1734 35.1996 12.97 35.1996H11.6903V36.7567H12.9182ZM17.009 39.4679H17.0053C16.48 39.4679 16.0362 39.2718 15.6737 38.8835C15.3113 38.4951 15.13 38.0106 15.13 37.4299C15.13 36.8492 15.3113 36.3647 15.6737 35.9763C16.0362 35.588 16.48 35.3919 17.0053 35.3919C17.4639 35.3919 17.8338 35.5473 18.1186 35.8543V35.4992H19.3317V39.3606H18.1186V39.0055C17.8264 39.3125 17.4565 39.4679 17.009 39.4679ZM17.2272 38.3915L17.2235 38.3952C17.4935 38.3952 17.7154 38.3065 17.8892 38.1252C18.0631 37.944 18.1518 37.711 18.1518 37.4262C18.1518 37.1414 18.0631 36.9121 17.8892 36.7345C17.7154 36.557 17.4935 36.4682 17.2272 36.4682C16.9646 36.4682 16.7501 36.557 16.5799 36.7345C16.4098 36.9121 16.3247 37.1414 16.3247 37.4262C16.3247 37.7147 16.4098 37.9477 16.5799 38.1252C16.7501 38.3028 16.9646 38.3915 17.2272 38.3915ZM21.4547 36.0207L21.451 36.0133C21.5657 35.8025 21.7284 35.6434 21.9356 35.5399C22.1427 35.4363 22.3831 35.403 22.6605 35.4363V36.5718C22.2463 36.5015 21.943 36.5607 21.7469 36.7493C21.5509 36.938 21.4547 37.2709 21.4547 37.748V39.3606H20.2416V35.4992H21.4547V36.0207ZM24.9759 39.4679L24.9722 39.4716C24.3397 39.4716 23.8293 39.2829 23.4372 38.9057C23.0452 38.5284 22.8491 38.0402 22.8491 37.4373C22.8491 36.8455 23.0378 36.3573 23.415 35.9726C23.7923 35.588 24.2842 35.3956 24.8945 35.3956C25.5159 35.3956 26.0078 35.5843 26.3703 35.9615C26.7327 36.3388 26.914 36.8159 26.914 37.3929C26.914 37.5446 26.9029 37.6777 26.8844 37.7924H24.029C24.1215 38.2362 24.4433 38.4581 24.9944 38.4581C25.3642 38.4581 25.6231 38.3287 25.7674 38.0661L26.8585 38.3841C26.7364 38.6615 26.5108 38.9131 26.1779 39.135C25.8451 39.3569 25.4456 39.4679 24.9759 39.4679ZM24.0327 37.0674H25.7341C25.7156 36.8862 25.6305 36.7308 25.4752 36.6014C25.3198 36.4719 25.1238 36.4091 24.8871 36.4091C24.6504 36.4091 24.4544 36.4756 24.3027 36.6051C24.1511 36.7345 24.0623 36.8899 24.0327 37.0674ZM29.958 35.3919V35.3993C30.4573 35.3993 30.8345 35.5547 31.0861 35.8617C31.3376 36.1687 31.4633 36.5866 31.4633 37.1155V39.3643H30.2539V37.3559C30.2539 36.7974 30.0245 36.5163 29.5622 36.5163C29.3292 36.5163 29.148 36.6014 29.0148 36.7715C28.8817 36.9417 28.8151 37.1747 28.8151 37.4743V39.3606H27.6019V35.4992H28.8151V35.8987C29.1073 35.5621 29.4882 35.3919 29.958 35.3919ZM34.5776 38.2695L34.8698 39.2348C34.5517 39.3606 34.2373 39.4235 33.9229 39.4235C33.468 39.4235 33.1277 39.294 32.8984 39.0351C32.6691 38.7762 32.5544 38.4211 32.5544 37.9662V36.557H31.9552V35.4992H32.5544V34.286H33.7676V35.4992H34.8069V36.557H33.7676V37.9662C33.7676 38.2362 33.9007 38.3694 34.167 38.3694C34.315 38.3694 34.4518 38.3361 34.5776 38.2695ZM13.0514 46.4679H13.0403C12.2377 46.4679 11.5719 46.2053 11.0393 45.68C10.5067 45.1548 10.2404 44.4965 10.2404 43.7087C10.2404 42.9282 10.5067 42.2736 11.0356 41.7447C11.5645 41.2158 12.2266 40.9532 13.0181 40.9532C13.7209 40.9532 14.3015 41.1307 14.7602 41.4895C15.2188 41.8482 15.5073 42.2625 15.622 42.7322L14.394 43.0355C14.3237 42.7951 14.1647 42.5843 13.9169 42.403C13.6691 42.2218 13.3732 42.133 13.0292 42.133C12.5817 42.133 12.2192 42.2847 11.9455 42.588C11.6718 42.8913 11.5349 43.2611 11.5349 43.7013C11.5349 44.134 11.6755 44.5076 11.9529 44.8183C12.2303 45.1289 12.5928 45.2843 13.0366 45.2843C13.3843 45.2843 13.6802 45.1955 13.9243 45.0217C14.1684 44.8478 14.3274 44.6407 14.3977 44.4003L15.6257 44.711C15.511 45.1733 15.2262 45.5802 14.7713 45.9353C14.3163 46.2903 13.743 46.4679 13.0514 46.4679ZM18.1001 46.4679V46.4716C17.5009 46.4716 17.0053 46.2755 16.6132 45.8872C16.2211 45.4988 16.0251 45.0143 16.0251 44.4336C16.0251 43.8529 16.2211 43.3684 16.6132 42.98C17.0053 42.5917 17.5009 42.3956 18.1001 42.3956C18.6992 42.3956 19.1949 42.588 19.5869 42.9763C19.979 43.3647 20.175 43.8492 20.175 44.4299C20.175 45.0106 19.979 45.4951 19.5869 45.8835C19.1949 46.2718 18.6992 46.4679 18.1001 46.4679ZM18.1001 45.3805V45.3841C18.3738 45.3841 18.592 45.2954 18.7547 45.1178C18.9175 44.9403 18.9988 44.711 18.9988 44.4336C18.9988 44.1562 18.9175 43.9306 18.7547 43.753C18.592 43.5755 18.3738 43.4867 18.1001 43.4867C17.8264 43.4867 17.6081 43.5755 17.4454 43.753C17.2827 43.9306 17.2013 44.1562 17.2013 44.4336C17.2013 44.711 17.2827 44.9366 17.4454 45.1141C17.6081 45.2917 17.8264 45.3805 18.1001 45.3805ZM25.5344 42.3919C26.0041 42.3919 26.3777 42.5362 26.6551 42.8284C26.9325 43.1206 27.073 43.5385 27.073 44.0822V46.3606H25.8635V44.3522C25.8635 43.7937 25.6601 43.5126 25.2496 43.5126C24.802 43.5126 24.5764 43.8233 24.5727 44.4447V46.3606H23.3633V44.3522C23.3633 43.7937 23.1598 43.5126 22.7493 43.5126C22.3017 43.5126 22.0761 43.8233 22.0761 44.4447V46.3606H20.863V42.4992H22.0761V42.8765C22.3535 42.5547 22.7086 42.3919 23.1413 42.3919C23.6517 42.3919 24.0253 42.5621 24.262 42.906C24.5838 42.5621 25.0092 42.3919 25.5344 42.3919ZM30.2686 42.3919L30.2649 42.3956C30.7902 42.3956 31.234 42.588 31.5965 42.9763C31.9589 43.3647 32.1402 43.8492 32.1402 44.4299C32.1402 45.0106 31.9589 45.4951 31.5965 45.8835C31.234 46.2718 30.7902 46.4679 30.2649 46.4679C29.8174 46.4679 29.4475 46.3125 29.1553 46.0055V47.951H27.9422V42.4992H29.1553V42.8543C29.4401 42.5473 29.81 42.3919 30.2686 42.3919ZM30.043 45.3952L30.0393 45.3989C30.3019 45.3989 30.5165 45.3102 30.6866 45.1289C30.8567 44.9477 30.9418 44.7147 30.9418 44.4299C30.9418 44.1451 30.8567 43.9158 30.6866 43.7382C30.5165 43.5607 30.3019 43.4719 30.0393 43.4719C29.7693 43.4719 29.5474 43.5607 29.3736 43.7382C29.1997 43.9158 29.1147 44.1451 29.1147 44.4299C29.1147 44.7184 29.2034 44.9514 29.3773 45.1289C29.5511 45.3065 29.773 45.3952 30.043 45.3952ZM34.474 46.4679H34.4703C33.9451 46.4679 33.5013 46.2718 33.1388 45.8835C32.7763 45.4951 32.5951 45.0106 32.5951 44.4299C32.5951 43.8492 32.7763 43.3647 33.1388 42.9763C33.5013 42.588 33.9451 42.3919 34.4703 42.3919C34.929 42.3919 35.2988 42.5473 35.5836 42.8543V42.4992H36.7968V46.3606H35.5836V46.0055C35.2914 46.3125 34.9216 46.4679 34.474 46.4679ZM34.6922 45.3915L34.6885 45.3952C34.9585 45.3952 35.1805 45.3065 35.3543 45.1252C35.5281 44.944 35.6169 44.711 35.6169 44.4262C35.6169 44.1414 35.5281 43.9121 35.3543 43.7345C35.1805 43.557 34.9585 43.4682 34.6922 43.4682C34.4296 43.4682 34.2151 43.557 34.045 43.7345C33.8748 43.9121 33.7898 44.1414 33.7898 44.4262C33.7898 44.7147 33.8748 44.9477 34.045 45.1252C34.2151 45.3028 34.4296 45.3915 34.6922 45.3915ZM40.0627 42.3919V42.3993C40.562 42.3993 40.9393 42.5547 41.1908 42.8617C41.4423 43.1687 41.568 43.5866 41.568 44.1155V46.3643H40.3586V44.3559C40.3586 43.7974 40.1293 43.5163 39.6669 43.5163C39.4339 43.5163 39.2527 43.6014 39.1195 43.7715C38.9864 43.9417 38.9198 44.1747 38.9198 44.4743V46.3606H37.7066V42.4992H38.9198V42.8987C39.212 42.5621 39.593 42.3919 40.0627 42.3919ZM45.0744 42.4992H46.3689L44.072 47.951H42.8404L43.5283 46.2681L43.5801 46.2607L43.5283 46.2681L41.7937 42.4992H43.1178L44.1275 44.8515L45.0744 42.4992ZM46.7055 46.4198H46.6981C46.4947 46.4198 46.3245 46.3532 46.1877 46.2163C46.0508 46.0795 45.9805 45.9094 45.9805 45.7059C45.9805 45.5136 46.0508 45.3509 46.1914 45.2177C46.3319 45.0846 46.5021 45.018 46.7018 45.018C46.8978 45.018 47.068 45.0846 47.2085 45.2177C47.3491 45.3509 47.4193 45.5136 47.4193 45.7059C47.4193 45.9094 47.3491 46.0795 47.2085 46.2163C47.068 46.3532 46.9015 46.4198 46.7055 46.4198Z" fill="white"/>
<path d="M13.625 24L13.625 17C13.625 15.3431 14.9681 14 16.625 14H51.3135C52.9704 14 54.3135 15.3431 54.3135 17V50.1157C54.3135 51.7726 52.9704 53.1157 51.3135 53.1157H16.625C14.9681 53.1157 13.625 51.7725 13.625 50.1157V49.5" stroke="white" stroke-width="0.410304" stroke-linecap="round"/>
</svg>
